<svg xmlns="http://www.w3.org/2000/svg" viewBox="0 0 437.57 370.7"><defs><style>.cls-1{fill:#e2e2e2;}</style></defs><g id="Capa_2" data-name="Capa 2"><g id="superior"><g id="ISO"><g id="Signo_de_pregunta" data-name="Signo de pregunta"><path class="cls-1" d="M155.3,322c-6.42-8.51-15.73-10.1-22.82-6.89-35.13,15.88-60.16,1.8-72.83-18.94-9.87-16.17-9.52-37.25,1.27-54.33,12.25-19.4,57.45-36.21,71.74-49.15a38.91,38.91,0,0,0,13-30c-.24-12.05-10.1-54.25-13-69.95-1.38-7.44-6-13.17-13.62-13.17a13,13,0,0,0-12.74,13s3.51,41.29,3.45,54.81c0,10.17-4.87,20.17-17.25,26C75.39,181.49,50,194.62,37.34,203.8,14.89,220.08,0,247.93,0,278.5,0,328,39.87,370.21,93.78,370.21a91.12,91.12,0,0,0,58.85-22.32C159.85,341.58,161,329.61,155.3,322Z"/></g><circle class="cls-1" cx="117.4" cy="26.6" r="26.45"/><path class="cls-1" d="M193.62,172.68c4.8,12.37,16.08,14,23.3,11.56,5.84-2,14.74-9.16,11.92-22.18-1.44-6.69-14.91-92.15-17.86-99.52-3.8-9.49-12.19-9.93-16.85-8.36S184,60.73,185.32,69.3C186.44,76.72,191.07,166.09,193.62,172.68Z"/><path class="cls-1" d="M265.22,192.61c.89,15.55,14.34,19.23,20.29,19.1,6.17-.14,19.12-5.92,19.09-20.29,0-6.85,12.79-147.4,12.11-155.32-.87-10.17-8.78-13-13.69-12.89s-11.56,3.34-12.82,11.92C289.11,42.55,264.76,184.52,265.22,192.61Z"/><path class="cls-1" d="M332,261.27c-1.06,21.19,15.48,28.42,23,29.38,6.12.78,25.52-1.7,29.38-23C385.58,260.88,437,22.91,437.52,15,438.26,4.79,430.9.73,426,.1s-11.94,1.48-14.53,9.75C409.25,17,332.31,254.21,332,261.27Z"/><circle class="cls-1" cx="341.97" cy="344.3" r="26.4"/></g></g></g></svg>